0
SECTION
2
HEADER
9
$INSUNITS
70
4
9
$ACADVER
1
AC1014
9
$HANDSEED
5
FFFF
0
ENDSEC
0
SECTION
2
TABLES
0
TABLE
2
VPORT
5
8
100
AcDbSymbolTable
0
ENDTAB
0
TABLE
2
LTYPE
5
5
100
AcDbSymbolTable
0
LTYPE
5
14
100
AcDbSymbolTableRecord
100
AcDbLinetypeTableRecord
2
BYBLOCK
70
0
0
LTYPE
5
15
100
AcDbSymbolTableRecord
100
AcDbLinetypeTableRecord
2
BYLAYER
70
0
0
ENDTAB
0
TABLE
2
LAYER
5
2
100
AcDbSymbolTable
70
2
0
LAYER
5
50
100
AcDbSymbolTableRecord
100
AcDbLayerTableRecord
2
0
70
0
6
CONTINUOUS
0
ENDTAB
0
TABLE
2
STYLE
5
3
100
AcDbSymbolTable
70
1
0
STYLE
5
11
100
AcDbSymbolTableRecord
100
AcDbTextStyleTableRecord
2
STANDARD
70
0
0
ENDTAB
0
TABLE
2
VIEW
5
6
100
AcDbSymbolTable
70
0
0
ENDTAB
0
TABLE
2
UCS
5
7
100
AcDbSymbolTable
70
0
0
ENDTAB
0
TABLE
2
APPID
5
9
100
AcDbSymbolTable
70
2
0
APPID
5
12
100
AcDbSymbolTableRecord
100
AcDbRegAppTableRecord
2
ACAD
70
0
0
ENDTAB
0
TABLE
2
DIMSTYLE
5
A
100
AcDbSymbolTable
70
1
0
ENDTAB
0
TABLE
2
BLOCK_RECORD
5
1
100
AcDbSymbolTable
70
1
0
BLOCK_RECORD
5
1F
100
AcDbSymbolTableRecord
100
AcDbBlockTableRecord
2
*MODEL_SPACE
0
BLOCK_RECORD
5
1B
100
AcDbSymbolTableRecord
100
AcDbBlockTableRecord
2
*PAPER_SPACE
0
ENDTAB
0
ENDSEC
0
SECTION
2
BLOCKS
0
BLOCK
5
20
100
AcDbEntity
100
AcDbBlockBegin
2
*MODEL_SPACE
0
ENDBLK
5
21
100
AcDbEntity
100
AcDbBlockEnd
0
BLOCK
5
1C
100
AcDbEntity
100
AcDbBlockBegin
2
*PAPER_SPACE
0
ENDBLK
5
1D
100
AcDbEntity
100
AcDbBlockEnd
0
ENDSEC
0
SECTION
2
ENTITIES
0
LWPOLYLINE
5
100
100
AcDbEntity
8
0
100
AcDbPolyline
90
8
70
1
43
0.0
10
-225.5
20
-0.49999999999999989
42
-0.41421356237309437
10
-228.5
20
2.5
10
-228.5
20
95.5
42
-0.41421356237310025
10
-225.5
20
98.500000000000014
10
-2.5000000000000004
20
98.500000000000014
42
-0.41421356237309365
10
0.49999999999999989
20
95.5
10
0.49999999999999989
20
2.5000000000000004
42
-0.41421356237309498
10
-2.5
20
-0.49999999999999989
0
LWPOLYLINE
5
101
100
AcDbEntity
8
0
100
AcDbPolyline
90
6
70
1
43
0.0
10
3.0621199040016283
20
99.837375032610041
10
1.8373750326100378
20
101.06211990400163
10
0.1643424251344211
20
100.61383216791761
10
-0.28394531094960512
20
98.940799560441974
10
0.94079956044198554
20
97.716054689050395
10
2.6138321679176011
20
98.164342425134436
0
LWPOLYLINE
5
102
100
AcDbEntity
8
0
100
AcDbPolyline
90
6
70
1
43
0.0
10
-113.13397459621555
20
-1.499999999999998
10
-114.86602540378441
20
-1.5000000000000022
10
-115.73205080756887
20
-2.9999999999999813
10
-114.86602540378445
20
-4.4999999999999796
10
-113.13397459621558
20
-4.4999999999999991
10
-112.26794919243113
20
-3.00000000000002
0
LWPOLYLINE
5
103
100
AcDbEntity
8
0
100
AcDbPolyline
90
6
70
1
43
0.0
10
-227.7718224426329
20
-0.95574248497806957
10
-228.95574248497815
20
0.22817755736706594
10
-230.57300733887126
20
-0.20516725418085469
10
-231.00635215041908
20
-1.8224321080739441
10
-229.82243210807388
20
-3.00635215041912
10
-228.20516725418082
20
-2.5730073388712063
0
LWPOLYLINE
5
104
100
AcDbEntity
8
0
100
AcDbPolyline
90
6
70
1
43
0.0
10
0.94079956044198565
20
0.28394531094960651
10
-0.28394531094960529
20
-0.94079956044198298
10
0.1643424251344211
20
-2.6138321679176002
10
1.8373750326100378
20
-3.0621199040016274
10
3.0621199040016283
20
-1.837375032610038
10
2.6138321679176011
20
-0.16434242513442124
0
LWPOLYLINE
5
105
100
AcDbEntity
8
0
100
AcDbPolyline
90
6
70
1
43
0.0
10
-113.13397459621558
20
102.5
10
-114.86602540378445
20
102.49999999999999
10
-115.73205080756887
20
101
10
-114.86602540378441
20
99.500000000000014
10
-113.13397459621555
20
99.5
10
-112.26794919243113
20
101.00000000000001
0
LWPOLYLINE
5
106
100
AcDbEntity
8
0
100
AcDbPolyline
90
6
70
1
43
0.0
10
-230.57300733887126
20
98.205167254180864
10
-228.95574248497815
20
97.771822442632939
10
-227.7718224426329
20
98.955742484978089
10
-228.20516725418082
20
100.57300733887121
10
-229.82243210807388
20
101.00635215041913
10
-231.00635215041908
20
99.822432108073954
0
LWPOLYLINE
5
107
100
AcDbEntity
8
0
100
AcDbPolyline
90
8
70
1
43
0.0
10
-225.5
20
-6.5999999999999943
42
-0.41421356237309498
10
-234.60000000000002
20
2.5
10
-234.60000000000002
20
95.5
42
-0.41421356237309681
10
-225.5
20
104.60000000000001
10
-2.5000000000000009
20
104.60000000000002
42
-0.41421356237309459
10
6.6000000000000005
20
95.5
10
6.6000000000000014
20
2.5000000000000018
42
-0.41421356237309503
10
-2.5
20
-6.6000000000000005
0
ENDSEC
0
SECTION
2
OBJECTS
0
DICTIONARY
5
C
100
AcDbDictionary
3
ACAD_GROUP
350
D
3
ACAD_MLINESTYLE
350
17
0
DICTIONARY
5
D
100
AcDbDictionary
0
DICTIONARY
5
1A
330
C
100
AcDbDictionary
0
DICTIONARY
5
17
100
AcDbDictionary
0
ENDSEC
0
EOF
